<svg width="80" height="80" viewBox="0 0 80 80" fill="none" xmlns="http://www.w3.org/2000/svg">
<path d="M40.0001 6.66667C21.6001 6.66667 6.66675 21.6 6.66675 40C6.66675 58.4 21.6001 73.3333 40.0001 73.3333C58.4001 73.3333 73.3334 58.4 73.3334 40C73.3334 21.6 58.4001 6.66667 40.0001 6.66667ZM40.0001 16.6667C45.5334 16.6667 50.0001 21.1333 50.0001 26.6667C50.0001 32.2 45.5334 36.6667 40.0001 36.6667C34.4667 36.6667 30.0001 32.2 30.0001 26.6667C30.0001 21.1333 34.4667 16.6667 40.0001 16.6667ZM40.0001 64C31.6667 64 24.3001 59.7333 20.0001 53.2667C20.1001 46.6333 33.3334 43 40.0001 43C46.6334 43 59.9001 46.6333 60.0001 53.2667C55.7001 59.7333 48.3334 64 40.0001 64Z" fill="#F08080"/>
</svg>
