<svg width="120" height="120" viewBox="0 0 120 120" fill="none" xmlns="http://www.w3.org/2000/svg">
<path d="M105 25C99.45 23.25 93.35 22.5 87.5 22.5C77.75 22.5 67.25 24.5 60 30C52.75 24.5 42.25 22.5 32.5 22.5C22.75 22.5 12.25 24.5 5 30V103.25C5 104.5 6.25 105.75 7.5 105.75C8 105.75 8.25 105.5 8.75 105.5C15.5 102.25 25.25 100 32.5 100C42.25 100 52.75 102 60 107.5C66.75 103.25 79 100 87.5 100C95.75 100 104.25 101.5 111.25 105.25C111.75 105.5 112 105.5 112.5 105.5C113.75 105.5 115 104.25 115 103V30C112 27.75 108.75 26.25 105 25ZM105 92.5C99.5 90.75 93.5 90 87.5 90C79 90 66.75 93.25 60 97.5V40C66.75 35.75 79 32.5 87.5 32.5C93.5 32.5 99.5 33.25 105 35V92.5Z" fill="#F08080"/>
<path d="M87.5 52.5C91.9 52.5 96.15 52.95 100 53.8V46.2C96.05 45.45 91.8 45 87.5 45C79 45 71.3 46.45 65 49.15V57.45C70.65 54.25 78.5 52.5 87.5 52.5Z" fill="#F08080"/>
<path d="M65 62.45V70.75C70.65 67.55 78.5 65.8 87.5 65.8C91.9 65.8 96.15 66.25 100 67.1V59.5C96.05 58.75 91.8 58.3 87.5 58.3C79 58.3 71.3 59.8 65 62.45Z" fill="#F08080"/>
<path d="M87.5 71.65C79 71.65 71.3 73.1 65 75.8V84.1C70.65 80.9 78.5 79.15 87.5 79.15C91.9 79.15 96.15 79.6 100 80.45V72.85C96.05 72.05 91.8 71.65 87.5 71.65Z" fill="#F08080"/>
</svg>
