<svg width="1288" height="502" viewBox="0 0 1288 502" fill="none" xmlns="http://www.w3.org/2000/svg">
    <rect y="2" width="1288" height="100" fill="#E8E8E8"/>
    <rect y="402" width="1288" height="100" fill="#E8E8E8"/>
    <rect y="202" width="1288" height="100" fill="#E8E8E8"/>
    <rect y="102" width="1288" height="100" fill="white"/>
    <rect y="302" width="1288" height="100" fill="white"/>
    <g filter="url(#filter0_i)">
        <rect x="0.5" y="0.5" width="1287" height="501" stroke="black"/>
    </g>
    <path d="M119.142 59.972H113.794L109.09 43.116H106.71L108.446 44.768V59.972H105.674V40.624H111.05L115.698 57.536H118.106L116.37 55.772V40.624H119.142V59.972ZM134.058 57.564L131.65 60H126.47L124.062 57.564V47.904L126.47 45.468H131.65L134.058 47.904V57.564ZM131.314 57.564V47.904H126.834V57.564H131.314ZM155.219 60H152.447V47.904H148.303V60H145.531V47.904H141.415V60H138.643V45.468H141.415V47.568L143.459 45.468H146.231L147.939 47.232L149.675 45.468H152.783L155.219 47.904V60ZM169.605 60H162.017L159.609 57.564V47.904L162.017 45.468H167.197L169.605 47.904V52.748L167.197 55.156H162.717L165.181 52.748H166.861V47.904H162.381V57.564H169.605V60Z" fill="black"/>
    <path d="M405.704 44.9H397.204V49.2H402.929L405.054 51.35V57.825L402.929 60H396.879L394.729 57.825V56.1L397.204 53.725V57.825H402.579V51.35H396.879L394.729 49.2V44.9L396.879 42.725H403.529L405.704 44.9ZM417.771 60H410.996L408.846 57.825V49.2L410.996 47.025H415.621L417.771 49.2V53.525L415.621 55.675H411.621L413.821 53.525H415.321V49.2H411.321V57.825H417.771V60ZM430.579 47.025L428.429 49.2H423.179V57.825H427.179V51.35H429.654V64.325L427.504 66.475H420.404L422.529 64.325H427.179V58.1L424.704 60H422.879L420.704 57.825V49.2L422.879 47.025H430.579ZM442.163 60H439.713V58.15L437.863 60H435.388L433.213 57.825V47.025H435.688V57.825H439.713V47.025H442.163V60ZM455.423 60H452.973V49.2H448.973V60H446.498V47.025H448.973V48.9L450.798 47.025H453.273L455.423 49.2V60ZM468.284 60H465.834V58.15L464.034 60H461.509L459.359 57.825V49.2L461.509 47.025H465.834V42.7L468.284 40.25V60ZM465.834 57.825V47.325L463.934 49.2H461.834V57.825H465.834ZM480.971 60H478.496V58.15L476.646 60H474.171L472.021 57.825V53.525L474.171 51.35H478.246L476.196 53.5H474.471V57.825H478.496V49.2H471.696L473.546 47.025H478.821L480.971 49.2V60Z" fill="black"/>
    <path d="M539.721 44.9H535.846V60H533.371V44.9H529.521V42.725H539.721V44.9ZM550.576 60H543.801L541.651 57.825V49.2L543.801 47.025H548.426L550.576 49.2V53.525L548.426 55.675H544.426L546.626 53.525H548.126V49.2H544.126V57.825H550.576V60ZM562.709 51.35L560.234 53.825V49.2H556.559V60H554.084V47.025H556.559V48.9L558.359 47.025H560.559L562.709 49.2V51.35ZM573.731 49.2L571.256 51.7V49.2H567.881V57.825H573.431V60H570.031V61.575H571.556L573.431 63.4V64.65L571.506 66.475H567.881L566.006 64.65H570.956V63.075H568.181V61.475L569.706 60H567.556L565.406 57.825V49.2L567.556 47.025H571.556L573.731 49.2ZM584.479 60H582.004V58.15L580.154 60H577.679L575.529 57.825V53.525L577.679 51.35H581.754L579.704 53.5H577.979V57.825H582.004V49.2H575.204L577.054 47.025H582.329L584.479 49.2V60Z" fill="black"/>
    <path d="M654.5 57.825L652.3 60H650.175V64.55L648 62.475V60H645.85L643.7 57.825V44.9L645.85 42.725H652.325L654.5 44.9V57.825ZM652.025 57.825V44.9H646.175V57.825H647.975L650.175 55.65V57.825H652.025ZM667.563 60H665.113V58.15L663.263 60H660.788L658.613 57.825V47.025H661.088V57.825H665.113V47.025H667.563V60ZM680.224 60H677.749V58.15L675.899 60H673.424L671.274 57.825V53.525L673.424 51.35H677.499L675.449 53.5H673.724V57.825H677.749V49.2H670.949L672.799 47.025H678.074L680.224 49.2V60ZM693.024 51.35L690.549 53.825V49.2H686.874V60H684.399V47.025H686.874V48.9L688.674 47.025H690.874L693.024 49.2V51.35ZM702.296 47.025L700.121 49.2H698.571V57.825H701.646V60H698.271L696.096 57.825V49.2H693.021L695.196 47.025H696.096V45.2L698.571 42.725V47.025H702.296ZM712.475 60H710V58.15L708.15 60H705.675L703.525 57.825V53.525L705.675 51.35H709.75L707.7 53.5H705.975V57.825H710V49.2H703.2L705.05 47.025H710.325L712.475 49.2V60Z" fill="black"/>
    <path d="M776.588 57.825L774.388 60H772.263V64.55L770.088 62.475V60H767.938L765.788 57.825V44.9L767.938 42.725H774.413L776.588 44.9V57.825ZM774.113 57.825V44.9H768.263V57.825H770.063L772.263 55.65V57.825H774.113ZM789.651 60H787.201V58.15L785.351 60H782.876L780.701 57.825V47.025H783.176V57.825H787.201V47.025H789.651V60ZM796.461 44.9H793.986V42.425H796.461V44.9ZM796.461 60H793.986V48.925L796.461 46.425V60ZM809.698 60H807.248V49.2H803.248V60H800.773V47.025H803.248V48.9L805.073 47.025H807.548L809.698 49.2V60ZM820.208 47.025L818.033 49.2H816.483V57.825H819.558V60H816.183L814.008 57.825V49.2H810.933L813.108 47.025H814.008V45.2L816.483 42.725V47.025H820.208ZM830.387 60H827.912V58.15L826.062 60H823.587L821.437 57.825V53.525L823.587 51.35H827.662L825.612 53.5H823.887V57.825H827.912V49.2H821.112L822.962 47.025H828.237L830.387 49.2V60Z" fill="black"/>
    <path d="M901.744 44.9H893.244V49.2H898.969L901.094 51.35V57.825L898.969 60H892.919L890.769 57.825V56.1L893.244 53.725V57.825H898.619V51.35H892.919L890.769 49.2V44.9L892.919 42.725H899.569L901.744 44.9ZM913.811 60H907.036L904.886 57.825V49.2L907.036 47.025H911.661L913.811 49.2V53.525L911.661 55.675H907.661L909.861 53.525H911.361V49.2H907.361V57.825H913.811V60ZM925.169 60H922.694V55.825L920.694 53.85L918.694 55.825V60H916.219V55.55L919.344 52.475L916.219 49.4V46.3L920.694 50.825L925.169 46.3V49.4L922.044 52.475L925.169 55.525V60ZM934.752 47.025L932.577 49.2H931.027V57.825H934.102V60H930.727L928.552 57.825V49.2H925.477L927.652 47.025H928.552V45.2L931.027 42.725V47.025H934.752ZM944.931 60H942.456V58.15L940.606 60H938.131L935.981 57.825V53.525L938.131 51.35H942.206L940.156 53.5H938.431V57.825H942.456V49.2H935.656L937.506 47.025H942.781L944.931 49.2V60Z" fill="black"/>
    <path d="M1011.73 44.9H1003.23V49.2H1008.96L1011.08 51.35V57.825L1008.96 60H1002.91L1000.76 57.825V56.1L1003.23 53.725V57.825H1008.61V51.35H1002.91L1000.76 49.2V44.9L1002.91 42.725H1009.56L1011.73 44.9ZM1023.45 60H1020.98V58.15L1019.13 60H1016.65L1014.5 57.825V53.525L1016.65 51.35H1020.73L1018.68 53.5H1016.95V57.825H1020.98V49.2H1014.18L1016.03 47.025H1021.3L1023.45 49.2V60ZM1024.08 40.55L1019.78 44.9H1017.3L1021 40.55H1024.08ZM1036.73 57.825L1034.55 60H1030.23V57.85L1027.75 60.3V42.55L1030.23 39.95V48.575L1031.78 47.025H1034.55L1036.73 49.2V57.825ZM1034.25 57.825V49.2H1030.23V57.825H1034.25ZM1049.13 60H1046.66V58.15L1044.81 60H1042.33L1040.18 57.825V53.525L1042.33 51.35H1046.41L1044.36 53.5H1042.63V57.825H1046.66V49.2H1039.86L1041.71 47.025H1046.98L1049.13 49.2V60ZM1061.98 60H1059.53V58.15L1057.73 60H1055.21L1053.06 57.825V49.2L1055.21 47.025H1059.53V42.7L1061.98 40.25V60ZM1059.53 57.825V47.325L1057.63 49.2H1055.53V57.825H1059.53ZM1075.02 57.825L1072.87 60H1068.25L1066.1 57.825V49.2L1068.25 47.025H1072.87L1075.02 49.2V57.825ZM1072.57 57.825V49.2H1068.57V57.825H1072.57Z" fill="black"/>
    <path d="M1125.29 57.825L1123.12 60H1114.49V47.025L1116.67 44.9H1114.19V42.725H1123.12L1125.29 44.9V57.825ZM1122.82 57.825V44.9H1116.97V59.7L1118.79 57.825H1122.82ZM1138.32 57.825L1136.17 60H1131.55L1129.4 57.825V49.2L1131.55 47.025H1136.17L1138.32 49.2V57.825ZM1135.87 57.825V49.2H1131.87V57.825H1135.87ZM1157.21 60H1154.74V49.2H1151.04V60H1148.56V49.2H1144.89V60H1142.41V47.025H1144.89V48.9L1146.71 47.025H1149.19L1150.71 48.6L1152.26 47.025H1155.04L1157.21 49.2V60ZM1163.86 44.9H1161.38V42.425H1163.86V44.9ZM1163.86 60H1161.38V48.925L1163.86 46.425V60ZM1177.1 60H1174.65V49.2H1170.65V60H1168.17V47.025H1170.65V48.9L1172.47 47.025H1174.95L1177.1 49.2V60ZM1190.58 47.025L1188.43 49.2H1183.18V57.825H1187.18V51.35H1189.66V64.325L1187.51 66.475H1180.41L1182.53 64.325H1187.18V58.1L1184.71 60H1182.88L1180.71 57.825V49.2L1182.88 47.025H1190.58ZM1202.07 57.825L1199.92 60H1195.29L1193.14 57.825V49.2L1195.29 47.025H1199.92L1202.07 49.2V57.825ZM1199.62 57.825V49.2H1195.62V57.825H1199.62Z" fill="black"/>
    <path d="M103.409 361.825L101.234 364H96.3087L94.1337 361.825V359.75L96.6087 357.3V361.825H100.934V348.9H94.4587V346.725H103.409V361.825ZM116.552 361.825L114.402 364H109.777L107.627 361.825V353.2L109.777 351.025H114.402L116.552 353.2V361.825ZM114.102 361.825V353.2H110.102V361.825H114.102ZM128.97 364H126.495V362.15L124.645 364H122.17L120.02 361.825V357.525L122.17 355.35H126.245L124.195 357.5H122.47V361.825H126.495V353.2H119.695L121.545 351.025H126.82L128.97 353.2V364ZM128.32 347.35L126.545 349.1L123.045 346.45L123.02 348.825H121.245V346.425L123.22 344.4L126.62 346.95V344.55H128.32V347.35ZM141.82 361.825L139.67 364H135.045L132.895 361.825V353.2L135.045 351.025H139.67L141.82 353.2V361.825ZM139.37 361.825V353.2H135.37V361.825H139.37ZM158.91 364H156.46V362.15L154.66 364H152.135L149.985 361.825V353.2L152.135 351.025H156.46V346.7L158.91 344.25V364ZM156.46 361.825V351.325L154.56 353.2H152.46V361.825H156.46ZM171.597 364H169.122V362.15L167.272 364H164.797L162.647 361.825V357.525L164.797 355.35H168.872L166.822 357.5H165.097V361.825H169.122V353.2H162.322L164.172 351.025H169.447L171.597 353.2V364ZM190.593 348.9H182.093V353.2H187.818L189.943 355.35V361.825L187.818 364H181.768L179.618 361.825V360.1L182.093 357.725V361.825H187.468V355.35H181.768L179.618 353.2V348.9L181.768 346.725H188.418L190.593 348.9ZM196.46 348.9H193.985V346.425H196.46V348.9ZM196.46 364H193.985V352.925L196.46 350.425V364ZM205.372 364H202.922L200.772 361.825V346.4L203.247 343.95V361.825H205.372V364ZM216.055 360.55L212.58 364H210.555L207.105 360.55V350.425L209.555 352.9V360.15L211.58 362.1L213.58 360.15V352.9L216.055 350.425V360.55ZM228.091 364H225.616V362.15L223.766 364H221.291L219.141 361.825V357.525L221.291 355.35H225.366L223.316 357.5H221.591V361.825H225.616V353.2H218.816L220.666 351.025H225.941L228.091 353.2V364Z" fill="black"/>
    <path d="M94.2208 460H91.7458L91.7958 458.25L86.8458 453.275L88.5208 451.35H91.7458V444.9H85.8958V460H83.4208V447.025L85.5958 444.9H83.1208V442.725H92.0458L94.2208 444.9V451.05L92.0458 453.225H90.0208V453.55L94.2208 457.7V460ZM106.534 460H104.059V458.15L102.209 460H99.7337L97.5837 457.825V453.525L99.7337 451.35H103.809L101.759 453.5H100.034V457.825H104.059V449.2H97.2587L99.1087 447.025H104.384L106.534 449.2V460ZM119.384 464.325L116.934 466.775V458.15L115.084 460H112.609L110.459 457.825V449.2L112.609 447.025H119.384V464.325ZM116.934 457.825V447.325L115.084 449.2H112.934V457.825H116.934ZM132.521 460H130.071V458.15L128.221 460H125.746L123.571 457.825V447.025H126.046V457.825H130.071V447.025H132.521V460ZM145.531 460H138.756L136.606 457.825V449.2L138.756 447.025H143.381L145.531 449.2V453.525L143.381 455.675H139.381L141.581 453.525H143.081V449.2H139.081V457.825H145.531V460ZM153.639 460H151.189L149.039 457.825V442.4L151.514 439.95V457.825H153.639V460ZM171.118 457.825L168.943 460H162.468L160.318 457.825V444.9L162.468 442.725H168.943L171.118 444.9V457.825ZM168.643 457.825V444.9H162.793V457.825H168.643ZM180.006 460H177.556L175.406 457.825V442.4L177.881 439.95V457.825H180.006V460ZM184.839 444.9H182.364V442.425H184.839V444.9ZM184.839 460H182.364V448.925L184.839 446.425V460ZM197.476 456.55L194.001 460H191.976L188.526 456.55V446.425L190.976 448.9V456.15L193.001 458.1L195.001 456.15V448.9L197.476 446.425V456.55ZM209.862 460H203.087L200.937 457.825V449.2L203.087 447.025H207.712L209.862 449.2V453.525L207.712 455.675H203.712L205.912 453.525H207.412V449.2H203.412V457.825H209.862V460ZM215.845 444.9H213.37V442.425H215.845V444.9ZM215.845 460H213.37V448.925L215.845 446.425V460ZM228.782 451.35L226.307 453.825V449.2H222.632V460H220.157V447.025H222.632V448.9L224.432 447.025H226.632L228.782 449.2V451.35ZM240.054 460H237.579V458.15L235.729 460H233.254L231.104 457.825V453.525L233.254 451.35H237.329L235.279 453.5H233.554V457.825H237.579V449.2H230.779L232.629 447.025H237.904L240.054 449.2V460Z" fill="black"/>
    <path d="M91.9341 261.825L89.7591 264H84.8341L82.6591 261.825V259.75L85.1341 257.3V261.825H89.4591V248.9H82.9841V246.725H91.9341V261.825ZM105.077 264H98.3021L96.1521 261.825V253.2L98.3021 251.025H102.927L105.077 253.2V257.525L102.927 259.675H98.9271L101.127 257.525H102.627V253.2H98.6271V261.825H105.077V264ZM115.91 253.2H109.735V255.35H113.135L115.31 257.525V261.825L113.135 264H107.26V261.825H112.835V257.525H109.435L107.26 255.35V253.2L109.435 251.025H113.71L115.91 253.2ZM125.7 253.2H119.525V255.35H122.925L125.1 257.525V261.825L122.925 264H117.05V261.825H122.625V257.525H119.225L117.05 255.35V253.2L119.225 251.025H123.5L125.7 253.2ZM130.64 248.9H128.165V246.425H130.64V248.9ZM130.64 264H128.165V252.925L130.64 250.425V264ZM143.027 253.2L140.552 255.7V253.2H137.177V261.825H142.727V264H136.852L134.702 261.825V253.2L136.852 251.025H140.852L143.027 253.2ZM153.775 264H151.3V262.15L149.45 264H146.975L144.825 261.825V257.525L146.975 255.35H151.05L149 257.5H147.275V261.825H151.3V253.2H144.5L146.35 251.025H151.625L153.775 253.2V264ZM173.371 255.35L171.196 257.525H165.046V264H162.571V251.025L164.746 248.9H162.271V246.725H171.196L173.371 248.9V255.35ZM170.896 255.35V248.9H165.046V257.225L166.871 255.35H170.896ZM185.619 264H178.844L176.694 261.825V253.2L178.844 251.025H183.469L185.619 253.2V257.525L183.469 259.675H179.469L181.669 257.525H183.169V253.2H179.169V261.825H185.619V264ZM197.752 255.35L195.277 257.825V253.2H191.602V264H189.127V251.025H191.602V252.9L193.402 251.025H195.602L197.752 253.2V255.35ZM209.374 264H202.599L200.449 261.825V253.2L202.599 251.025H207.224L209.374 253.2V257.525L207.224 259.675H203.224L205.424 257.525H206.924V253.2H202.924V261.825H209.374V264ZM215.357 248.9H212.882V246.425H215.357V248.9ZM215.357 264H212.882V252.925L215.357 250.425V264ZM228.294 255.35L225.819 257.825V253.2H222.144V264H219.669V251.025H222.144V252.9L223.944 251.025H226.144L228.294 253.2V255.35ZM239.566 264H237.091V262.15L235.241 264H232.766L230.616 261.825V257.525L232.766 255.35H236.841L234.791 257.5H233.066V261.825H237.091V253.2H230.291L232.141 251.025H237.416L239.566 253.2V264Z" fill="black"/>
    <path d="M107.283 160H104.808V142.725H107.283V160ZM121.229 147.025L119.079 149.2H113.829V157.825H117.829V151.35H120.304V164.325L118.154 166.475H111.054L113.179 164.325H117.829V158.1L115.354 160H113.529L111.354 157.825V149.2L113.529 147.025H121.229ZM132.714 157.825L130.564 160H125.939L123.789 157.825V149.2L125.939 147.025H130.564L132.714 149.2V157.825ZM130.264 157.825V149.2H126.264V157.825H130.264ZM145.432 151.35L142.957 153.825V149.2H139.282V160H136.807V147.025H139.282V148.9L141.082 147.025H143.282L145.432 149.2V151.35ZM161.026 157.825L158.851 160H153.926L151.751 157.825V155.75L154.226 153.3V157.825H158.551V144.9H152.076V142.725H161.026V157.825ZM174.269 160H171.819V158.15L169.969 160H167.494L165.319 157.825V147.025H167.794V157.825H171.819V147.025H174.269V160ZM187.529 160H185.079V149.2H181.079V160H178.604V147.025H181.079V148.9L182.904 147.025H185.379L187.529 149.2V160ZM194.19 144.9H191.715V142.425H194.19V144.9ZM194.19 160H191.715V148.925L194.19 146.425V160ZM207.177 157.825L205.027 160H200.402L198.252 157.825V149.2L200.402 147.025H205.027L207.177 149.2V157.825ZM204.727 157.825V149.2H200.727V157.825H204.727ZM219.895 151.35L217.42 153.825V149.2H213.745V160H211.27V147.025H213.745V148.9L215.545 147.025H217.745L219.895 149.2V151.35Z" fill="black"/>
    <path d="M448.831 141.335L450.873 143.377L432.294 161.956L424.127 153.79L426.169 151.748L432.294 157.873L448.831 141.335ZM448.831 137.208L432.294 153.746L426.169 147.621L420 153.79L432.294 166.083L455 143.377L448.831 137.208Z" fill="black"/>
    <path d="M568.831 244.335L570.873 246.377L552.294 264.956L544.127 256.79L546.169 254.748L552.294 260.873L568.831 244.335ZM568.831 240.208L552.294 256.746L546.169 250.621L540 256.79L552.294 269.083L575 246.377L568.831 240.208Z" fill="black"/>
    <path d="M688.831 340.335L690.873 342.377L672.294 360.956L664.127 352.79L666.169 350.748L672.294 356.873L688.831 340.335ZM688.831 336.208L672.294 352.746L666.169 346.621L660 352.79L672.294 365.083L695 342.377L688.831 336.208Z" fill="black"/>
    <path d="M448.831 337.335L450.873 339.377L432.294 357.956L424.127 349.79L426.169 347.748L432.294 353.873L448.831 337.335ZM448.831 333.208L432.294 349.746L426.169 343.621L420 349.79L432.294 362.083L455 339.377L448.831 333.208Z" fill="black"/>
    <path d="M688.831 446.335L690.873 448.377L672.294 466.956L664.127 458.79L666.169 456.748L672.294 462.873L688.831 446.335ZM688.831 442.208L672.294 458.746L666.169 452.621L660 458.79L672.294 471.083L695 448.377L688.831 442.208Z" fill="black"/>
    <path d="M568.831 444.335L570.873 446.377L552.294 464.956L544.127 456.79L546.169 454.748L552.294 460.873L568.831 444.335ZM568.831 440.208L552.294 456.746L546.169 450.621L540 456.79L552.294 469.083L575 446.377L568.831 440.208Z" fill="black"/>
    <path d="M448.831 444.335L450.873 446.377L432.294 464.956L424.127 456.79L426.169 454.748L432.294 460.873L448.831 444.335ZM448.831 440.208L432.294 456.746L426.169 450.621L420 456.79L432.294 469.083L455 446.377L448.831 440.208Z" fill="black"/>
    <path d="M568.831 143.335L570.873 145.377L552.294 163.956L544.127 155.79L546.169 153.748L552.294 159.873L568.831 143.335ZM568.831 139.208L552.294 155.746L546.169 149.621L540 155.79L552.294 168.083L575 145.377L568.831 139.208Z" fill="black"/>
    <path d="M688.831 246.335L690.873 248.377L672.294 266.956L664.127 258.79L666.169 256.748L672.294 262.873L688.831 246.335ZM688.831 242.208L672.294 258.746L666.169 252.621L660 258.79L672.294 271.083L695 248.377L688.831 242.208Z" fill="black"/>
    <path d="M808.831 342.335L810.873 344.377L792.294 362.956L784.127 354.79L786.169 352.748L792.294 358.873L808.831 342.335ZM808.831 338.208L792.294 354.746L786.169 348.621L780 354.79L792.294 367.083L815 344.377L808.831 338.208Z" fill="black"/>
    <path d="M808.831 141.335L810.873 143.377L792.294 161.956L784.127 153.79L786.169 151.748L792.294 157.873L808.831 141.335ZM808.831 137.208L792.294 153.746L786.169 147.621L780 153.79L792.294 166.083L815 143.377L808.831 137.208Z" fill="black"/>
    <path d="M928.831 143.335L930.873 145.377L912.294 163.956L904.127 155.79L906.169 153.748L912.294 159.873L928.831 143.335ZM928.831 139.208L912.294 155.746L906.169 149.621L900 155.79L912.294 168.083L935 145.377L928.831 139.208Z" fill="black"/>
    <path d="M928.831 450.335L930.873 452.377L912.294 470.956L904.127 462.79L906.169 460.748L912.294 466.873L928.831 450.335ZM928.831 446.208L912.294 462.746L906.169 456.621L900 462.79L912.294 475.083L935 452.377L928.831 446.208Z" fill="black"/>
    <defs>
        <filter id="filter0_i" x="0" y="0" width="1288" height="506" filterUnits="userSpaceOnUse" color-interpolation-filters="sRGB">
            <feFlood flood-opacity="0" result="BackgroundImageFix"/>
            <feBlend mode="normal" in="SourceGraphic" in2="BackgroundImageFix" result="shape"/>
            <feColorMatrix in="SourceAlpha" type="matrix" values="0 0 0 0 0 0 0 0 0 0 0 0 0 0 0 0 0 0 127 0" result="hardAlpha"/>
            <feOffset dy="4"/>
            <feGaussianBlur stdDeviation="2"/>
            <feComposite in2="hardAlpha" operator="arithmetic" k2="-1" k3="1"/>
            <feColorMatrix type="matrix" values="0 0 0 0 0 0 0 0 0 0 0 0 0 0 0 0 0 0 0.25 0"/>
            <feBlend mode="normal" in2="shape" result="effect1_innerShadow"/>
        </filter>
    </defs>
</svg>
